<svg id="Layer_1" data-name="Layer 1" xmlns="http://www.w3.org/2000/svg" viewBox="0 0 847.21 252.43"><defs><style>.cls-1{fill:#f06;}.cls-2{fill:#2d2e83;}.cls-3{fill:#d92414;}.cls-4{fill:#0abf04;}.cls-5{fill:#f39200;}.cls-6{fill:#52b3d9;}.cls-7{fill:#ffde00;}.cls-8{fill:#a3195b;}.cls-9{fill:#95c11f;}.cls-10{fill:#fff;}</style></defs><circle class="cls-1" cx="97.23" cy="164.52" r="27.64"/><circle class="cls-2" cx="289.41" cy="116.47" r="28.16"/><circle class="cls-2" cx="307.94" cy="157.33" r="9.78"/><circle class="cls-3" cx="449.52" cy="120.8" r="32.49"/><circle class="cls-4" cx="538.85" cy="164.52" r="33.8"/><circle class="cls-5" cx="235.3" cy="167.11" r="21.68"/><circle class="cls-6" cx="632.08" cy="151.87" r="19.18"/><circle class="cls-6" cx="680.52" cy="112.93" r="29.39"/><circle class="cls-7" cx="747.04" cy="167.11" r="30.6"/><circle class="cls-8" cx="379.06" cy="172.03" r="23.3"/><circle class="cls-9" cx="170.27" cy="118.11" r="23.57"/><path class="cls-10" d="M117.47,120.66v69.67h-7.19V172.81c-4.74,7-13.36,10.77-25.28,10.77-18.25,0-30.89-11.35-30.89-27.73S66.75,128.13,85,128.13c11.92,0,20.54,3.73,25.28,10.77V120.66c0-16.67-8-25.43-23.7-25.43-13.51,0-21,6.89-22.7,21H56.7c2-18,12.78-27.87,29.88-27.87C106.26,88.33,117.47,100.11,117.47,120.66Zm-7.19,35.19c0-13.21-9.19-20.83-25.28-20.83-14.22,0-23.71,8.33-23.71,20.83S70.78,176.68,85,176.68C101.09,176.68,110.28,169.07,110.28,155.85Z"/><path class="cls-10" d="M250.78,129.56v52.15H243.6V129.56c0-16.66-7.18-25.71-20.54-25.71s-23.13,10.63-23.13,25.28v52.58h-7.19V129.56c0-16.66-7.18-25.71-20.54-25.71s-23.13,10.63-23.13,25.28v52.58h-7.18V88.33h7.18v21.55A27,27,0,0,1,172.2,97c12.5,0,21.41,6.32,25.43,17.67A27,27,0,0,1,223.06,97C240.44,97,250.78,109.16,250.78,129.56Z"/><path class="cls-10" d="M333.53,120.66v69.67h-7.18V172.81c-4.74,7-13.36,10.77-25.29,10.77-18.24,0-30.88-11.35-30.88-27.73s12.64-27.72,30.88-27.72c11.93,0,20.55,3.73,25.29,10.77V120.66c0-16.67-8.05-25.43-23.71-25.43-13.5,0-21,6.89-22.7,21h-7.18c2-18,12.79-27.87,29.88-27.87C322.32,88.33,333.53,100.11,333.53,120.66Zm-7.18,35.19c0-13.21-9.2-20.83-25.29-20.83-14.22,0-23.7,8.33-23.7,20.83s9.48,20.83,23.7,20.83C317.15,176.68,326.35,169.07,326.35,155.85Z"/><path class="cls-10" d="M396.31,97.24v6.61h-8.19c-13.65,0-23,11.06-23,27.15v50.71H358V88.33h7.18v22.13C369.88,101.84,378.35,97,388.84,97,391,97,394.73,97.1,396.31,97.24Z"/><path class="cls-10" d="M416.42,140.05V154.7c0,18.25,9.77,28.74,26.43,28.74,17.53,0,24.71-8.34,26.44-26h7.18c-2.15,22-12.64,32.9-33.62,32.9-20.68,0-33.61-13.65-33.61-35.63V124c0-22,12.93-35.63,33.61-35.63s33.62,13.79,33.62,35.63v16.09Zm0-16.09v9.48h52.87V124c0-18-9.91-28.73-26.44-28.73S416.42,105.86,416.42,124Z"/><path class="cls-10" d="M498,54.11h7.18V190.33H498Z"/><path class="cls-10" d="M527.18,83.74c0-4.31,3-7,7.47-7s7.47,2.73,7.47,7-3,7-7.47,7S527.18,88.05,527.18,83.74ZM531.06,102h7.18v88.35h-7.18Z"/><path class="cls-10" d="M625,129.56v52.15h-7.19V129.56c0-17.09-7.47-25.71-22-25.71s-24.56,10.34-24.56,25.28v52.58H564.1V88.33h7.19v21.55c5-8,13.93-12.93,24.56-12.93C614.38,97,625,108.73,625,129.56Z"/><path class="cls-10" d="M710.35,120.91v69.42h-7.18V120.91c0-19.53-7.47-29.38-22-29.38s-24.57,11.82-24.57,28.89v60.06h-7.18V54.11h7.18V98.42a27.47,27.47,0,0,1,24.57-14.77C699.72,83.65,710.35,97.11,710.35,120.91Z"/><path class="cls-10" d="M793.1,120.66v69.67h-7.19V172.81c-4.74,7-13.36,10.77-25.28,10.77-18.24,0-30.89-11.35-30.89-27.73s12.65-27.72,30.89-27.72c11.92,0,20.54,3.73,25.28,10.77V120.66c0-16.67-8-25.43-23.7-25.43-13.5,0-21,6.89-22.7,21h-7.18c2-18,12.78-27.87,29.88-27.87C781.89,88.33,793.1,100.11,793.1,120.66Zm-7.19,35.19c0-13.21-9.19-20.83-25.28-20.83-14.22,0-23.7,8.33-23.7,20.83s9.48,20.83,23.7,20.83C776.72,176.68,785.91,169.07,785.91,155.85Z"/></svg>