<svg id="Layer_1" data-name="Layer 1" xmlns="http://www.w3.org/2000/svg" xmlns:xlink="http://www.w3.org/1999/xlink" viewBox="0 0 187.41 187.41"><defs><style>.cls-1{fill:none;}.cls-2,.cls-6,.cls-7{fill:#ff0064;stroke:#ff0064;stroke-miterlimit:10;}.cls-2{stroke-width:0.27px;}.cls-3{fill:#2d2d82;}.cls-4{fill:#ffdc00;}.cls-5{fill:#a5195a;}.cls-6{stroke-width:0.31px;}.cls-7{stroke-width:0.5px;}.cls-8{fill:#96c31e;}.cls-9{fill:#f59100;}.cls-10{fill:#d72314;}.cls-11{fill:#0abe05;}.cls-12{fill:#50b4d7;}.cls-13{fill:url(#New_Pattern);}</style><pattern id="New_Pattern" data-name="New Pattern" width="707" height="541.5" patternTransform="translate(101.26 -26.47) scale(0.11 0.11)" patternUnits="userSpaceOnUse" viewBox="0 0 707 541.5"><rect class="cls-1" width="707" height="541.5"/><circle class="cls-2" cx="185.7" cy="545.82" r="35.59"/><circle class="cls-3" cx="330.59" cy="555.03" r="26.22"/><circle class="cls-4" cx="690.55" cy="581.41" r="55.89"/><circle class="cls-5" cx="266.38" cy="555.03" r="19.62"/><circle class="cls-4" cx="-16.45" cy="581.41" r="55.89"/><circle class="cls-6" cx="689.87" cy="170.94" r="41.55"/><circle class="cls-6" cx="262.81" cy="340.59" r="41.55"/><circle class="cls-6" cx="-17.13" cy="170.94" r="41.55"/><circle class="cls-7" cx="659.26" cy="446.03" r="66.62"/><circle class="cls-2" cx="185.7" cy="4.32" r="35.59"/><circle class="cls-8" cx="503.88" cy="280.9" r="49.46"/><circle class="cls-8" cx="203.16" cy="71.03" r="28.04"/><circle class="cls-8" cx="55.14" cy="239.1" r="49.46"/><circle class="cls-8" cx="553.34" cy="463.78" r="24.73"/><circle class="cls-9" cx="368.19" cy="260.48" r="75.25"/><circle class="cls-9" cx="485.17" cy="528.16" r="48.17"/><circle class="cls-9" cx="98.9" cy="54.49" r="50.14"/><circle class="cls-3" cx="443.88" cy="400.24" r="69.88"/><circle class="cls-3" cx="114.79" cy="500.2" r="28.23"/><circle class="cls-3" cx="568" cy="59.08" r="54.24"/><circle class="cls-3" cx="242.41" cy="231.44" r="39.25"/><circle class="cls-3" cx="330.59" cy="13.53" r="26.22"/><circle class="cls-4" cx="323.14" cy="417.99" r="45.8"/><circle class="cls-4" cx="690.55" cy="39.91" r="55.89"/><circle class="cls-4" cx="41.94" cy="330.36" r="34.94"/><circle class="cls-4" cx="303.82" cy="113.61" r="70.18"/><circle class="cls-10" cx="573.77" cy="183.79" r="53.11"/><circle class="cls-10" cx="373.99" cy="500.2" r="36.88"/><circle class="cls-10" cx="77.53" cy="417.99" r="53.11"/><circle class="cls-10" cx="65.69" cy="148.91" r="26.56"/><circle class="cls-11" cx="458.06" cy="130.67" r="59.65"/><circle class="cls-11" cx="203.16" cy="446.03" r="59.65"/><circle class="cls-12" cx="634.66" cy="299.04" r="66.66"/><circle class="cls-12" cx="41.94" cy="505.68" r="22.47"/><circle class="cls-12" cx="148.17" cy="312.89" r="61.61"/><circle class="cls-12" cx="398.41" cy="43.43" r="38.59"/><circle class="cls-12" cx="288.25" cy="500.2" r="31.5"/><circle class="cls-5" cx="553.34" cy="372.19" r="34.94"/><circle class="cls-5" cx="634.66" cy="122.36" r="24.59"/><circle class="cls-5" cx="162.94" cy="154.14" r="58.35"/><circle class="cls-5" cx="266.38" cy="13.53" r="19.62"/><circle class="cls-7" cx="-47.74" cy="446.03" r="66.62"/><circle class="cls-4" cx="-16.45" cy="39.91" r="55.89"/><circle class="cls-9" cx="485.17" cy="-13.34" r="48.17"/></pattern></defs><rect class="cls-13" width="187.41" height="187.41"/></svg>